<?xml version="1.0" encoding="utf-8"?>
<!-- Generator: Adobe Illustrator 19.2.1, SVG Export Plug-In . SVG Version: 6.00 Build 0)  -->
<svg version="1.1" id="Layer_1" xmlns="http://www.w3.org/2000/svg" xmlns:xlink="http://www.w3.org/1999/xlink" x="0px" y="0px"
	 viewBox="0 0 50 50" style="enable-background:new 0 0 50 50;" xml:space="preserve">
<g>
	<path d="M43.1,9.8c1.3,0,2.4,0.3,3.5,1c0.2,0.1,0.4,0.3,0.5,0.5c0.2,0.3,0.4,0.5,0.6,0.8c0.4,0.7,0.8,1.4,1.1,2.1
		c0.3,0.7,0.6,1.4,0.9,2.1c0.1,0.2,0.1,0.3,0.1,0.5c-0.2,1.2-0.5,2.4-1.1,3.5c-0.7,1.3-1.7,2.5-2.8,3.5c-1,0.9-2.2,1.6-3.4,2.2
		c-0.1,0.1-0.3,0.1-0.4,0.1c-1.3,0.2-2.6,0.2-3.8-0.3c-0.9-0.3-1.6-0.8-2.3-1.4C35.5,24,35,23.5,34.7,23c0-0.1-0.1-0.1-0.1-0.2
		c-0.1,0-0.2,0.1-0.2,0.1c-1.4,1-2.8,2.1-4.2,3.1c-0.7,0.6-1.5,1.1-2.2,1.7c-2,1.6-3.9,3.3-5.7,5.1c-0.5,0.5-1,1.1-1.4,1.6
		c0,0.1-0.1,0.1-0.1,0.2l0.1,0.1c1,0.7,1.6,1.6,1.9,2.8c0.2,0.9,0.3,1.8,0.2,2.7c0,0.1-0.1,0.2-0.1,0.3c-0.4,0.8-1,1.5-1.7,2.2
		c-1,1-2.2,1.7-3.5,2.2c-0.9,0.3-1.8,0.6-2.7,0.7c-0.7,0.1-1.5,0.2-2.2,0.3c-0.5,0-1,0-1.5-0.1s-1-0.4-1.4-0.7
		c-0.3-0.2-0.5-0.5-0.8-0.8c-0.7-0.9-1.3-2-1.6-3.1C7,39.9,7.3,38.8,8,37.6c0-0.1,0.1-0.1,0.1-0.2c-0.1,0-0.1,0-0.1,0
		c-0.5,0.1-1,0.2-1.5,0.3c-0.7,0.1-1.4,0-2-0.2c-0.1,0-0.2-0.1-0.3-0.1C4,37.3,3.8,37.2,3.6,37c-0.7-0.5-1.4-1.1-2-1.7
		c-0.3-0.3-0.5-0.6-0.7-1c-0.3-0.5-0.5-1.1-0.6-1.8c0-0.5,0-0.9,0-1.4c0-0.1,0-0.2,0.1-0.3c0.2-0.7,0.5-1.3,0.9-1.9
		c0.1-0.1,0.2-0.3,0.3-0.4c0.6-0.6,1.1-1.2,1.7-1.8c0.5-0.5,1-1,1.5-1.4c0.6-0.6,0.5-0.5,1.3-0.8C6.8,24.2,7.6,24,8.4,24
		c0.8-0.1,1.6-0.1,2.4,0.1c1.2,0.3,2.2,0.9,3,1.9c0.1,0.1,0.2,0.2,0.3,0.4c0,0.1,0.1,0.1,0.1,0.2c0.1,0,0.2-0.1,0.2-0.1
		c1.1-0.7,2.1-1.4,3.1-2.2c0.4-0.3,0.8-0.6,1.2-1c0.8-0.7,1.7-1.4,2.6-2.1c1.2-0.9,2.4-1.7,3.6-2.6c1.1-0.8,2.2-1.6,3.3-2.4
		c0.1,0,0.1-0.1,0.2-0.2l-0.1-0.1c-0.3-0.1-0.5-0.3-0.8-0.4c-0.3-0.2-0.5-0.3-0.8-0.5c-0.7-0.5-1.1-1.2-1.3-2.1
		c-0.1-0.6-0.2-1.3-0.1-1.9c0-0.1,0.1-0.2,0.1-0.3c0.2-0.6,0.5-1.1,0.9-1.6c0.5-0.7,1-1.3,1.5-1.9c0.9-0.9,1.9-1.5,3-2
		s2.2-0.8,3.3-1c0.5-0.1,0.9-0.1,1.4-0.1c0.2,0,0.5,0,0.7,0.1c2.4,0.6,4.3,1.9,5.6,4.1c0.1,0.1,0.1,0.3,0.1,0.5c0,0.4,0,0.8,0.1,1.2
		C41.9,10,42.6,9.8,43.1,9.8z M10.9,35.1c-0.1,0.1-0.1,0.1-0.2,0.2c-0.4,0.4-0.8,0.9-1.2,1.4c-0.1,0.2-0.2,0.3-0.3,0.5
		c-0.7,1.1-0.9,2.2-0.7,3.5c0.1,0.9,0.5,1.6,1.1,2.2c0.1,0.1,0.3,0.2,0.4,0.3c0.2,0.1,0.4,0.2,0.6,0.3c0.1,0,0.2,0.1,0.3,0.1
		c0.3,0.2,0.7,0.3,1,0.2c0.2,0,0.5,0,0.7,0c0.1,0,0.3,0,0.4,0c0.2,0,0.4,0,0.6-0.1c0.3,0,0.5-0.1,0.8-0.1c0.2-0.1,0.5-0.1,0.7-0.2
		c0.2-0.1,0.3-0.1,0.5-0.2c0.5-0.2,1-0.5,1.4-0.9c0.3-0.3,0.6-0.6,0.9-1c0.1-0.1,0.2-0.3,0.3-0.4c0.3-0.4,0.6-0.8,0.9-1.3
		c0.2-0.3,0.3-0.7,0.5-1.1c0.1-0.5,0.2-1,0.1-1.5c-0.1-0.6-0.4-1.2-0.9-1.6c-0.4-0.4-0.9-0.8-1.4-1.1c-0.1,0-0.2-0.1-0.3-0.1
		c-0.3-0.1-0.6-0.2-0.9-0.3c0,0-0.1,0-0.1-0.1c0.1-0.2,0.7-0.7,0.9-0.8c0.1,0,0.2,0.1,0.4,0.1l0.1-0.1c0.2-0.2,0.3-0.4,0.5-0.6
		c0.2-0.2,0.3-0.4,0.5-0.6c3.3-3,6.8-5.9,10.4-8.6c1.5-1.1,3-2.2,4.5-3.3c0.3-0.2,0.6-0.5,1-0.7c0,0,0.1,0,0.1-0.1
		c0,0.1,0.1,0.2,0.1,0.2c0.3,0.9,0.8,1.7,1.4,2.4c0.3,0.3,0.6,0.6,1,0.8c0.1,0.1,0.2,0.1,0.3,0.2c0.2,0.1,0.5,0.2,0.8,0.2
		c0.4,0,0.7,0,1.1-0.1c0.3,0,0.5,0,0.8,0l0,0c0.1,0,0.2,0,0.2,0c0.4-0.1,0.9-0.2,1.3-0.5c0.1,0,0.2-0.1,0.3-0.1
		c0.3-0.1,0.6-0.3,0.8-0.4c0.1-0.1,0.2-0.1,0.3-0.2c0.3-0.1,0.7-0.3,0.9-0.5l0.1-0.1c0.7-0.4,1.2-1,1.6-1.6c0.3-0.4,0.5-0.9,0.7-1.3
		c0.1-0.3,0.2-0.6,0.4-0.9c0-0.1,0-0.2,0.1-0.3c0-0.3,0.1-0.5,0.1-0.8c0.1-0.5,0.2-1,0.2-1.5c0-0.2,0-0.4-0.1-0.5
		c-0.2-0.4-0.4-0.7-0.6-1c-0.2-0.3-0.4-0.5-0.6-0.7c-0.8-0.7-1.8-1-2.9-0.9c-0.6,0.1-1.2,0.2-1.8,0.5c-0.9,0.4-1.7,0.9-2.4,1.5
		c-0.1,0.1-0.1,0.1-0.2,0.1c-0.3-0.4-0.6-0.7-0.9-1.1l-0.1-0.1l0,0l0,0l0,0c0,0,0.1-0.1,0.2-0.1c0.5-0.4,1-0.8,1.5-1.3
		c0.1-0.1,0.1-0.2,0.1-0.3c0-0.4-0.1-0.8-0.1-1.2c-0.1-0.6-0.2-1.2-0.3-1.8c-0.1-0.3-0.2-0.6-0.3-0.9c0,0.2-0.1,0.1-0.2,0
		c-0.3-0.2-0.6-0.4-0.9-0.5c-0.8-0.4-1.7-0.7-2.7-0.8c-1.1-0.1-2.2,0.1-3.3,0.5c-1,0.4-2,1-2.8,1.8c-0.5,0.4-0.9,0.9-1.3,1.3
		c-0.3,0.3-0.4,0.6-0.5,1c-0.1,0.2-0.1,0.5-0.1,0.7c0,0.6,0.2,1.2,0.5,1.7c0,0.1,0.1,0.2,0.1,0.2c0.1,0.3,0.4,0.6,0.7,0.8
		c0.3,0.2,0.6,0.3,1,0.4c0.5,0.1,1,0.2,1.5,0.2c0.2,0,0.4,0,0.6,0c0.3,0,0.6,0,1,0h0.1c-0.1,0.2-0.3,0.4-0.5,0.6
		c-0.2,0.1-0.4,0.2-0.6,0.4c-0.2,0.1-0.3,0.2-0.4,0.4c-0.1,0.1-0.1,0.1-0.2,0.2c-0.4,0.2-0.7,0.4-1,0.7s-0.6,0.5-0.9,0.7
		c-1.6,1.1-3.1,2.3-4.6,3.4c-1.1,0.8-2.2,1.7-3.3,2.5c-0.9,0.7-1.8,1.5-2.6,2.2c-0.7,0.6-1.3,1.1-2,1.7c-0.3,0.3-0.7,0.6-1,0.9
		c-0.7,0.7-1.5,1.3-2.4,1.6c-0.3,0.1-0.5,0.2-0.8,0.2c-0.1,0-0.2,0-0.3,0c0-0.1,0.1-0.1,0.1-0.2c0.2-0.2,0.3-0.4,0.5-0.7
		c0.1-0.1,0.1-0.2,0.1-0.3c-0.1-0.6-0.3-1.2-0.5-1.7c-0.2-0.3-0.4-0.6-0.6-0.9c-0.7-0.7-1.5-0.9-2.4-0.8c-0.5,0.1-1,0.2-1.5,0.4
		c-0.9,0.4-1.7,0.9-2.4,1.4c-0.1,0-0.1,0.1-0.2,0.1C4,27.8,3.5,28.3,3.1,29c-0.4,0.6-0.7,1.2-1,1.9c-0.2,0.6-0.3,1.2-0.2,1.8
		C2,33.2,2.1,33.6,2.3,34c0.2,0.3,0.4,0.5,0.6,0.7c0.2,0.3,0.5,0.5,0.8,0.7c0.2,0.2,0.5,0.3,0.9,0.4c0.1,0,0.2,0,0.3,0.1
		C5.2,36,5.5,36,5.7,36c0.1,0,0.2,0,0.3,0h0.1c0.1,0.1,0.1,0,0.2,0c0.2,0,0.4,0,0.5,0c0.4,0,0.8-0.1,1.2-0.3l0.1-0.1
		c0.1,0,0.2-0.1,0.3-0.1C9,35.3,9.4,35,9.8,34.7c0.1,0,0.1-0.1,0.2-0.1C10.4,34.7,10.8,34.9,10.9,35.1z"/>
</g>
</svg>
